<svg xmlns="http://www.w3.org/2000/svg" style="display: none;">
    <symbol id="home" viewBox="0 0 16 16">
        <path d="M8 3.293l6 6V13a1 1 0 0 1-1 1h-3v-3H6v3H3a1 1 0 0 1-1-1v-3.707l6-6z"/>
        <path d="M7 13h2v2H7v-2z"/>
    </symbol>

    <symbol id="table" viewBox="0 0 16 16">
        <path d="M0 3a2 2 0 0 1 2-2h12a2 2 0 0 1 2 2v1H0V3zm0 2h16v8a2 2 0 0 1-2 2H2a2 2 0 0 1-2-2V5zm1 1v2h2V6H1zm3 0v2h3V6H4zm4 0v2h3V6H8zm4 0v2h3V6h-3zM1 9v2h2V9H1zm3 0v2h3V9H4zm4 0v2h3V9H8zm4 0v2h3V9h-3z"/>
    </symbol>

    <symbol id="people-circle" viewBox="0 0 16 16">
        <path d="M11 6a3 3 0 1 1-6 0 3 3 0 0 1 6 0z"/>
        <path fill-rule="evenodd" d="M0 8a8 8 0 1 1 16 0A8 8 0 0 1 0 8zm8-7a7 7 0 0 0-5.468 11.37c.69-.87 1.743-1.37 2.968-1.37h1c1.225 0 2.278.5 2.968 1.37A7 7 0 0 0 8 1z"/>
    </symbol>

    <symbol id="speedometer2" viewBox="0 0 16 16">
        <path d="M8 4a.5.5 0 0 1 .5.5V8h2.5a.5.5 0 0 1 0 1H8a.5.5 0 0 1-.5-.5V4.5A.5.5 0 0 1 8 4z"/>
        <path d="M8 0a8 8 0 1 0 8 8A8 8 0 0 0 8 0zM1.022 8a7 7 0 1 1 13.956 0A7 7 0 0 1 1.022 8z"/>
    </symbol>

    <!-- Ícones extras que podem ser úteis -->
    <symbol id="gear" viewBox="0 0 16 16">
        <path d="M8 0a8 8 0 0 0-1.313.117l.356.357A6.996 6.996 0 0 1 8 1a6.996 6.996 0 0 1 .957-.526l.356-.357A8 8 0 0 0 8 0zM3.406 1.879l.359.359A6.978 6.978 0 0 1 5 1.02V0.018A7.99 7.99 0 0 0 3.406 1.879zM0 8a8 8 0 0 0 .117 1.313l.357-.356A6.996 6.996 0 0 1 1 8c0-.347.032-.685.094-1.02l-.357-.356A8 8 0 0 0 0 8zm1.879-4.594l.359.359A6.978 6.978 0 0 1 1.02 5H0.018A7.99 7.99 0 0 0 1.879 3.406z"/>
    </symbol>

    <symbol id="box-arrow-right" viewBox="0 0 16 16">
        <path fill-rule="evenodd" d="M6 13.5A.5.5 0 0 0 6.5 14h7a.5.5 0 0 0 0-1h-7A.5.5 0 0 0 6 13.5zM10.354 5.646a.5.5 0 1 0-.708.708L12.293 9H1.5a.5.5 0 0 0 0 1h10.793l-2.647 2.646a.5.5 0 0 0 .708.708l3.5-3.5a.5.5 0 0 0 0-.708l-3.5-3.5z"/>
    </symbol>
</svg>